<svg width="50.268mm" height="50.268mm" version="1.1" viewBox="0 0 50.268 50.268" xml:space="preserve" xmlns="http://www.w3.org/2000/svg" xmlns:xlink="http://www.w3.org/1999/xlink"><defs><radialGradient id="radialGradient1041" cx="91.64" cy="94.381" r="25.134" gradientTransform="matrix(1.9525 1.0088 -.86263 1.6696 -8.7137 -156.03)" gradientUnits="userSpaceOnUse"><stop stop-color="#151515" offset="0"/><stop stop-color="#444" offset="1"/></radialGradient><linearGradient id="linearGradient4782" x1="75.314" x2="100.97" y1="89.726" y2="102.9" gradientTransform="translate(1.2958 4.0456)" gradientUnits="userSpaceOnUse"><stop stop-color="#ff5761" offset="0"/><stop stop-color="#7961d4" offset="1"/></linearGradient></defs><g transform="translate(-64.67,-69.245)" stroke-width="9.525"><circle cx="89.804" cy="94.379" r="25.134" fill="url(#radialGradient1041)"/><g fill="url(#linearGradient4782)" aria-label="dep rem"><path id="d" d="m80.741 93.975c0.89746 0 1.7611-0.47413 2.3707-1.1007h0.0508l0.1524 0.89746h1.5917v-11.955h-1.9473v3.0141l0.08467 1.3377c-0.64347-0.5588-1.2531-0.9144-2.1844-0.9144-1.8288 0-3.5221 1.6595-3.5221 4.3688 0 2.7432 1.3377 4.3519 3.4036 4.3519zm0.49107-1.6087c-1.2023 0-1.8965-0.94826-1.8965-2.7601 0-1.7272 0.88053-2.7263 1.9304-2.7263 0.5588 0 1.1345 0.16933 1.6933 0.67733v3.8777c-0.54186 0.64347-1.0837 0.93133-1.7272 0.93133z" style="font-variation-settings:'wght' 600"/><path id="e" d="m89.829 93.975c1.0837 0 2.0997-0.3048 2.8787-0.88053l-0.67733-1.2531c-0.57573 0.37253-1.2192 0.57573-1.9304 0.57573-1.3208 0-2.2013-0.8128-2.4045-2.1844h5.2493c0.06773-0.3048 0.1016-0.62653 0.1016-1.0329 0-2.3368-1.2192-3.9624-3.4713-3.9624-1.9473 0-3.8608 1.6595-3.8608 4.3688 0 2.7771 1.8119 4.3688 4.1148 4.3688zm-2.1336-5.2493c0.16933-1.2361 0.98213-1.9135 1.9304-1.9135 1.0837 0 1.6425 0.7112 1.6425 1.9135z" style="font-variation-settings:'wght' 600"/><path id="p" d="m93.786 97.073h1.9473v-2.6247l-0.06773-1.3885c0.67733 0.59266 1.4055 0.9144 2.1505 0.9144 1.8457 0 3.5391-1.6425 3.5391-4.4873 0-2.5569-1.1853-4.2333-3.2681-4.2333-0.9144 0-1.7949 0.49106-2.5061 1.1007h-0.0508l-0.1524-0.89746h-1.5917zm3.6068-4.7075c-0.47413 0-1.0668-0.18627-1.6595-0.69427v-3.8608c0.64346-0.64346 1.2192-0.93133 1.8119-0.93133 1.27 0 1.8119 0.9652 1.8119 2.6247 0 1.8965-0.84666 2.8617-1.9643 2.8617z" style="font-variation-settings:'wght' 600"/><path id="r" d="m77.846 106.74h1.9473v-5.0631c0.508-1.27 1.3039-1.7272 1.9643-1.7272 0.33867 0 0.54187 0.03387 0.79586 0.1016l0.38947-1.6595c-0.23707-0.11853-0.508-0.16933-0.93133-0.16933-0.89746 0-1.778 0.6096-2.3707 1.6933h-0.0508l-0.1524-1.4901h-1.5917z" style="font-variation-settings:'wght' 600"/><path d="m86.426 106.94c1.0837 0 2.0997-0.3048 2.8787-0.88053l-0.67733-1.2531c-0.57573 0.37254-1.2192 0.57574-1.9304 0.57574-1.3208 0-2.2013-0.8128-2.4045-2.1844h5.2493c0.06773-0.3048 0.1016-0.62653 0.1016-1.0329 0-2.3368-1.2192-3.9624-3.4713-3.9624-1.9473 0-3.8608 1.6595-3.8608 4.3688 0 2.7771 1.8119 4.3688 4.1148 4.3688zm-2.1336-5.2493c0.16933-1.2361 0.98213-1.9135 1.9304-1.9135 1.0837 0 1.6425 0.7112 1.6425 1.9135z" style="font-variation-settings:'wght' 600"/><path id="m" d="m90.383 106.74h1.9473v-5.8081c0.64346-0.69427 1.2192-1.0329 1.7441-1.0329 0.8636 0 1.27 0.508 1.27 1.8796v4.9615h1.9643v-5.8081c0.64346-0.69427 1.2023-1.0329 1.7272-1.0329 0.88053 0 1.2869 0.508 1.2869 1.8796v4.9615h1.9473v-5.2155c0-2.0997-0.8128-3.302-2.5569-3.302-1.0668 0-1.8796 0.64347-2.6755 1.4901-0.38947-0.93133-1.0837-1.4901-2.3029-1.4901-1.0499 0-1.8457 0.6096-2.5569 1.3377h-0.0508l-0.1524-1.1345h-1.5917z" style="font-variation-settings:'wght' 600"/></g></g></svg>
