<?xml version="1.0" encoding="UTF-8" standalone="no"?>
<svg
   width="50.268mm"
   height="50.268mm"
   version="1.1"
   viewBox="0 0 50.268 50.268"
   xml:space="preserve"
   id="svg33"
   sodipodi:docname="deprem_io.svg"
   inkscape:version="1.2.2 (b0a8486541, 2022-12-01)"
   xmlns:inkscape="http://www.inkscape.org/namespaces/inkscape"
   xmlns:sodipodi="http://sodipodi.sourceforge.net/DTD/sodipodi-0.dtd"
   xmlns:xlink="http://www.w3.org/1999/xlink"
   xmlns="http://www.w3.org/2000/svg"
   xmlns:svg="http://www.w3.org/2000/svg"><sodipodi:namedview
     id="namedview35"
     pagecolor="#ffffff"
     bordercolor="#999999"
     borderopacity="1"
     inkscape:showpageshadow="0"
     inkscape:pageopacity="0"
     inkscape:pagecheckerboard="0"
     inkscape:deskcolor="#d1d1d1"
     inkscape:document-units="mm"
     showgrid="false"
     inkscape:zoom="3.9107466"
     inkscape:cx="75.561019"
     inkscape:cy="94.866796"
     inkscape:window-width="1920"
     inkscape:window-height="1007"
     inkscape:window-x="0"
     inkscape:window-y="0"
     inkscape:window-maximized="1"
     inkscape:current-layer="g29" /><defs
     id="defs13"><linearGradient
       id="linearGradient2783"><stop
         stop-color="#ff5761"
         offset="0"
         id="stop2" /><stop
         stop-color="#7961d4"
         offset="1"
         id="stop4" /></linearGradient><radialGradient
       id="radialGradient1041"
       cx="91.64"
       cy="94.381"
       r="25.134"
       gradientTransform="matrix(1.9525 1.0088 -.86263 1.6696 -8.7137 -156.03)"
       gradientUnits="userSpaceOnUse"><stop
         stop-color="#151515"
         offset="0"
         id="stop7" /><stop
         stop-color="#444"
         offset="1"
         id="stop9" /></radialGradient><linearGradient
       id="linearGradient4782"
       x1="75.314"
       x2="100.97"
       y1="89.726"
       y2="102.9"
       gradientTransform="translate(1.2958 4.0456)"
       gradientUnits="userSpaceOnUse"
       xlink:href="#linearGradient2783" /></defs><g
     transform="translate(-64.67,-69.245)"
     id="g31"
     style="display:inline"><circle
       cx="89.804001"
       cy="94.378998"
       r="25.134001"
       fill="url(#radialGradient1041)"
       stroke-width="9.525"
       id="circle15"
       inkscape:label="daire" /><g
       fill="url(#linearGradient4782)"
       stroke-width="9.525"
       aria-label="dep rem"
       id="g29"
       inkscape:label="yazi"><path
         d="m 80.741,93.975 c 0.89746,0 1.7611,-0.47413 2.3707,-1.1007 h 0.0508 l 0.1524,0.89746 h 1.5917 v -11.955 h -1.9473 v 3.0141 l 0.08467,1.3377 c -0.64347,-0.5588 -1.2531,-0.9144 -2.1844,-0.9144 -1.8288,0 -3.5221,1.6595 -3.5221,4.3688 0,2.7432 1.3377,4.3519 3.4036,4.3519 z m 0.49107,-1.6087 c -1.2023,0 -1.8965,-0.94826 -1.8965,-2.7601 0,-1.7272 0.88053,-2.7263 1.9304,-2.7263 0.5588,0 1.1345,0.16933 1.6933,0.67733 v 3.8777 c -0.54186,0.64347 -1.0837,0.93133 -1.7272,0.93133 z"
         style="font-variation-settings:'wght' 600"
         id="d"
         inkscape:label="d" /><path
         d="m 89.829,93.975 c 1.0837,0 2.0997,-0.3048 2.8787,-0.88053 l -0.67733,-1.2531 c -0.57573,0.37253 -1.2192,0.57573 -1.9304,0.57573 -1.3208,0 -2.2013,-0.8128 -2.4045,-2.1844 h 5.2493 c 0.06773,-0.3048 0.1016,-0.62653 0.1016,-1.0329 0,-2.3368 -1.2192,-3.9624 -3.4713,-3.9624 -1.9473,0 -3.8608,1.6595 -3.8608,4.3688 0,2.7771 1.8119,4.3688 4.1148,4.3688 z m -2.1336,-5.2493 c 0.16933,-1.2361 0.98213,-1.9135 1.9304,-1.9135 1.0837,0 1.6425,0.7112 1.6425,1.9135 z"
         style="font-variation-settings:'wght' 600"
         id="e"
         inkscape:label="e" /><path
         d="m 93.786,97.073 h 1.9473 v -2.6247 l -0.06773,-1.3885 c 0.67733,0.59266 1.4055,0.9144 2.1505,0.9144 1.8457,0 3.5391,-1.6425 3.5391,-4.4873 0,-2.5569 -1.1853,-4.2333 -3.2681,-4.2333 -0.9144,0 -1.7949,0.49106 -2.5061,1.1007 h -0.0508 l -0.1524,-0.89746 h -1.5917 z m 3.6068,-4.7075 c -0.47413,0 -1.0668,-0.18627 -1.6595,-0.69427 v -3.8608 c 0.64346,-0.64346 1.2192,-0.93133 1.8119,-0.93133 1.27,0 1.8119,0.9652 1.8119,2.6247 0,1.8965 -0.84666,2.8617 -1.9643,2.8617 z"
         style="font-variation-settings:'wght' 600"
         id="p"
         inkscape:label="p" /><path
         d="m 77.846,106.74 h 1.9473 v -5.0631 c 0.508,-1.27 1.3039,-1.7272 1.9643,-1.7272 0.33867,0 0.54187,0.03387 0.79586,0.1016 l 0.38947,-1.6595 c -0.23707,-0.11853 -0.508,-0.16933 -0.93133,-0.16933 -0.89746,0 -1.778,0.6096 -2.3707,1.6933 h -0.0508 l -0.1524,-1.4901 H 77.846 Z"
         style="font-variation-settings:'wght' 600"
         id="r"
         inkscape:label="r" /><path
         d="m 86.426,106.94 c 1.0837,0 2.0997,-0.3048 2.8787,-0.88053 l -0.67733,-1.2531 c -0.57573,0.37254 -1.2192,0.57574 -1.9304,0.57574 -1.3208,0 -2.2013,-0.8128 -2.4045,-2.1844 h 5.2493 c 0.06773,-0.3048 0.1016,-0.62653 0.1016,-1.0329 0,-2.3368 -1.2192,-3.9624 -3.4713,-3.9624 -1.9473,0 -3.8608,1.6595 -3.8608,4.3688 0,2.7771 1.8119,4.3688 4.1148,4.3688 z m -2.1336,-5.2493 c 0.16933,-1.2361 0.98213,-1.9135 1.9304,-1.9135 1.0837,0 1.6425,0.7112 1.6425,1.9135 z"
         style="font-variation-settings:'wght' 600"
         id="path25"
         inkscape:label="e" /><path
         d="m 90.383,106.74 h 1.9473 v -5.8081 c 0.64346,-0.69427 1.2192,-1.0329 1.7441,-1.0329 0.8636,0 1.27,0.508 1.27,1.8796 v 4.9615 h 1.9643 v -5.8081 c 0.64346,-0.69427 1.2023,-1.0329 1.7272,-1.0329 0.88053,0 1.2869,0.508 1.2869,1.8796 v 4.9615 h 1.9473 v -5.2155 c 0,-2.0997 -0.8128,-3.302 -2.5569,-3.302 -1.0668,0 -1.8796,0.64347 -2.6755,1.4901 -0.38947,-0.93133 -1.0837,-1.4901 -2.3029,-1.4901 -1.0499,0 -1.8457,0.6096 -2.5569,1.3377 H 92.1271 L 91.9747,98.4259 H 90.383 Z"
         style="font-variation-settings:'wght' 600"
         id="m"
         inkscape:label="m" /></g></g></svg>
