<svg width="144.73mm" height="144.73mm" version="1.1" viewBox="0 0 144.73 144.73" xml:space="preserve" xmlns="http://www.w3.org/2000/svg"><g transform="translate(-15.461 -37.434)"><path d="m54.09 37.434v21.696h-21.696v113.51h-16.933v9.525h144.73v-9.525h-16.933v-113.51h-21.696v-21.696h-67.469m57.944 57.944h-48.419v-43.656l0.15954-4.1492 2.7509-0.61328h42.862l2.3738 0.42423 0.27199 3.5445v44.45m-29.104-38.629v9.7896h-9.525v9.525h9.525v9.525h9.7896v-9.525h9.525v-9.525h-9.525v-9.7896h-9.7896m-28.84 11.906v36.248h67.469v-36.248h12.171v103.98h-41.01v-19.315h-9.7896v19.315h-38.1l-2.6384-0.42413-0.27199-6.455v-89.958l0.15955-6.5304 3.0155-0.6133h8.9958m4.7625 55.563v9.7896h9.525v-9.7896h-9.525m24.501 0.27199-0.42413 4.2259 0.27199 4.8675 2.1093 0.42412 6.9842-0.27199 0.42413-4.2259-0.27199-4.8675-2.1093-0.42413-6.9842 0.27199m23.918-0.27199v9.7896h9.525v-9.7896z" fill="#8bf133"/></g></svg>
