<svg version="1.1" viewBox="0 0 376.86 499.53" xmlns="http://www.w3.org/2000/svg">
 <circle cx="188.43" cy="185.6" r="131.78pt" fill="#fff"/>
 <path transform="matrix(.93749 0 0 .93749 .58593 .58593)" d="m200.99 0c-111 0-200.99 89.986-200.99 200.99 9.3823e-4 40.446 12.204 79.95 35.015 113.35h-0.0419l1.4562 1.917c2.9412 4.194 6.0416 8.274 9.2945 12.232l155.27 204.35 155.27-204.35c3.253-3.958 6.353-8.038 9.294-12.232l1.456-1.917h-0.041c22.811-33.399 35.014-72.904 35.016-113.35 0-111-89.987-200.99-200.99-200.99zm0 63.22c76.088 0 137.77 61.682 137.77 137.77s-61.682 137.77-137.77 137.77-137.77-61.682-137.77-137.77 61.682-137.77 137.77-137.77z" fill="#f68b20"/>
 <path transform="matrix(3.5433 0 0 3.5433 106.12 125.32)" d="m9.5294 2.5e-4 -0.50203 0.13803c-0.93851 0.25805-1.8144 0.78429-2.421 1.4547-0.43336 0.47887-5.2323 7.5632-5.6133 8.2865-0.52189 0.99072-0.80969 1.8961-0.93832 2.9523-0.0489 0.4008-0.0632 2.6234-0.0502 7.7663l0.0182 7.2048 0.13219 0.2472c0.18334 0.3428 0.46931 0.613 0.82317 0.7777 0.29612 0.1379 0.3279 0.1397 2.3401 0.1404l2.04 6e-4 0.097 0.346c0.1311 0.4672 0.52363 1.266 0.8554 1.7406 0.71677 1.0254 1.4758 1.686 2.5475 2.2174 0.94754 0.4697 1.2785 0.5649 2.5845 0.7433v-1e-4c0.2544 0.0348 1.185-0.0175 1.6442-0.0923 0.5867-0.0956 1.1015-0.2658 1.7715-0.5858 0.819-0.3911 1.2692-0.7082 1.8801-1.3244 0.7486-0.755 1.3102-1.6509 1.6306-2.6005l0.1398-0.4143 10.771-0.0306 0.133 0.4039c0.7012 2.1299 2.5729 3.883 4.7366 4.4364 2.4228 0.6196 4.918-0.107 6.6885-1.9478 0.6056-0.6297 1.1979-1.6237 1.4826-2.4883l0.1329-0.4036h1.9874c2.2159 0 2.3357-0.017 2.7755-0.3934 0.1334-0.1142 0.318-0.3616 0.4105-0.5498l0.1681-0.3422v-12.915l-0.1378-0.2989c-0.164-0.356-0.3742-0.5893-0.6993-0.7757-0.1315-0.0754-3.2204-1.2082-6.8641-2.5172l-6.6248-2.38-2.5492-3.2025c-1.402-1.7614-2.725-3.4155-2.9401-3.6758-0.7232-0.87555-1.6166-1.4586-2.7269-1.7801l-0.4771-0.13815h-7.6233zm0.35863 3.3483h7.1748c3.9462 0 7.272 0.02074 7.3906 0.04601 0.5084 0.10831 0.6588 0.27522 3.7377 4.1475 1.6341 2.0551 3.0843 3.8351 3.2226 3.9554 0.2237 0.1945 0.9565 0.4716 6.6124 2.5007l6.3609 2.282 0.0154 4.6702 0.0153 4.6702h-1.9537l-0.2287-0.604c-0.7536-1.9899-2.3041-3.4579-4.3397-4.1086-0.7755-0.2479-1.4763-0.3334-2.3873-0.2912-2.7562 0.1277-5.1449 1.9142-6.0705 4.5403l-0.1633 0.4634h-10.785l-0.1072-0.3438c-0.5906-1.896-2.1978-3.5694-4.0922-4.2608-0.9092-0.3318-1.2589-0.388-2.3993-0.3859-0.9444 0.0018-1.1017 0.0173-1.6144 0.1598-0.31239 0.0869-0.76425 0.2384-1.0041 0.3365-1.008 0.4124-2.142 1.311-2.839 2.2498-0.37211 0.5012-0.87176 1.481-0.99963 1.9604l-0.0757 0.284h-2.0174l1e-3 -6.0538c5.8e-4 -3.6824 0.0244-6.2177 0.0605-6.4723 0.0763-0.5373 0.25313-1.0909 0.5109-1.5994 0.22309-0.4402 4.9002-7.3844 5.1559-7.6552 0.0865-0.09155 0.30603-0.23953 0.4879-0.32885zm9.7648 2.0179c-0.7568 0.01828-1.5139 0.23898-2.1737 0.67696-0.3269 0.21703-6.0067 5.6075-7.2365 6.868-0.89009 0.9123-1.2236 1.6595-1.2325 2.7616-6e-3 0.6887 0.0789 1.0579 0.38805 1.6964 0.358 0.7395 1.0006 1.3737 1.7768 1.7532 0.3117 0.1524 0.755 0.3158 0.9852 0.3632 1.0893 0.2242 2.2673 0.0041 3.1642-0.5913 0.3107-0.2062 6.0535-5.6524 7.241-6.8669 0.867-0.8867 1.2213-1.701 1.2231-2.811 1e-3 -0.86728-0.2676-1.6439-0.8053-2.3249-0.8085-1.0241-2.0691-1.5557-3.3304-1.5252zm0.1307 1.2729c0.665 1.2e-4 0.7024 0.0071 1.1417 0.21499 1.1716 0.55436 1.7706 1.6739 1.5252 2.8508-0.1537 0.73706-0.3109 0.96486-1.4018 2.0312-0.5479 0.5356-1.279 1.2389-1.6247 1.563l-0.6286 0.5893-3.8726-3.7208 1.399-1.3623c2.1151-2.0599 2.2853-2.1663 3.4618-2.1661zm16.086 17.251c0.3186 5e-4 0.6379 0.0298 0.861 0.088 1.193 0.3107 2.1462 1.2734 2.4628 2.487 0.1398 0.5357 0.1261 1.3519-0.0311 1.846-0.3752 1.1799-1.3949 2.1129-2.5823 2.3627-1.7545 0.3691-3.4842-0.6615-4.0158-2.3926-0.1804-0.5876-0.1762-1.4629 0.01-2.0029 0.402-1.1676 1.2862-2.0027 2.4383-2.3028 0.2207-0.0575 0.5387-0.086 0.8573-0.0855zm-23.874 2e-4c0.3017 0.0051 0.5998 0.0362 0.8129 0.0912 1.15 0.2965 2.1331 1.2852 2.4292 2.443 0.2222 0.8686 0.1476 1.5859-0.252 2.4248-0.4284 0.8992-1.2208 1.5361-2.2342 1.7952-1.1721 0.2998-2.3914-0.037-3.2527-0.8984-0.45568-0.4557-0.73437-0.9489-0.89838-1.5902-0.31608-1.2359 0.0503-2.4862 0.98444-3.3601 0.42895-0.4012 1.053-0.7353 1.576-0.8436 0.2278-0.0471 0.5331-0.0673 0.8348-0.062z" fill="#f68b20"/>
</svg>
