<?xml version="1.0" encoding="UTF-8"?>
<svg width="402" height="533" version="1.1" viewBox="0 0 402 533" xmlns="http://www.w3.org/2000/svg">
    <g transform="translate(120.42 67.042)">
        <circle cx="81.148" cy="134.07" r="138.73" fill="#fff" stroke-width="9.525"/>
        <g transform="translate(537.04 203.18)" fill="#f83b3b">
                <path d="m-456.47-270.22a200.99 200.99 0 0 0-200.99 200.99 200.99 200.99 0 0 0 35.015 113.35h-0.0419l1.4562 1.9167a200.99 200.99 0 0 0 9.2945 12.232l155.27 204.35 155.27-204.35a200.99 200.99 0 0 0 9.2945-12.232l1.4562-1.9167h-0.0419a200.99 200.99 0 0 0 35.016-113.35 200.99 200.99 0 0 0-200.99-200.99zm0 63.22a137.77 137.77 0 0 1 137.77 137.77 137.77 137.77 0 0 1-137.77 137.77 137.77 137.77 0 0 1-137.77-137.77 137.77 137.77 0 0 1 137.77-137.77z"/>
                </g>
                </g>
                <g transform="matrix(9.6849 0 0 9.6849 115.91 114.1)">
                    <path d="m1.828 8.9 7.072-7.073a4.0001 4.0001 0 1 1 5.657 5.657l-7.07 7.071a4.0005 4.0005 0 1 1-5.66-5.655zm9.128 0.771 2.893-2.893a3 3 0 1 0-4.243-4.242l-2.893 2.893z" fill="#f83b3b"/>
                    </g>
                    </svg>
