<?xml version="1.0" encoding="utf-8"?>
<!-- Svg Vector Icons : http://www.onlinewebfonts.com/icon -->
<!DOCTYPE svg PUBLIC "-//W3C//DTD SVG 1.1//EN" "http://www.w3.org/Graphics/SVG/1.1/DTD/svg11.dtd">
<svg fill='red' version="1.1" xmlns="http://www.w3.org/2000/svg" xmlns:xlink="http://www.w3.org/1999/xlink" x="0px" y="0px" viewBox="0 0 1000 1000" enable-background="new 0 0 1000 1000" xml:space="preserve">
<metadata> Svg Vector Icons : http://www.onlinewebfonts.com/icon </metadata>
<g><g transform="translate(0.000000,511.000000) scale(0.100000,-0.100000)"><path d="M4423,4979.6c-625.3-97.6-1272.7-370.3-1773.9-749.5c-219.5-166.3-636.4-598.7-802.7-833.7c-516.6-727.3-765-1618.7-700.7-2505.6c97.6-1350.4,1028.8-2957.9,2678.5-4614.3c350.3-350.4,911.3-867,1102-1011.1l73.2-55.4l153,124.2c663,543.2,1530,1427.9,2102,2146.4C8877.6-481.7,9263.4,1247.8,8456.4,2875.3c-534.4,1079.8-1521.1,1833.7-2716.3,2075.4C5423,5015.1,4740.1,5030.6,4423,4979.6z M5456.3,3806.6C6545,3618.1,7416.4,2773.3,7638.1,1689.1c93.1-454.6,53.2-1006.7-102-1445.7c-175.2-487.8-507.8-935.7-933.5-1257.2c-208.4-157.4-638.6-365.9-893.6-434.6c-924.6-243.9-1902.5,6.6-2578.8,663c-1071,1035.5-1102,2734-71,3800.5c390.3,408,862.5,665.2,1419.1,780.5C4733.4,3846.5,5188,3853.2,5456.3,3806.6z"/><path d="M4445.2,2265.6v-554.3h-565.4h-565.4v-554.3V602.6h565.4h565.4V37.2v-565.4h554.3h554.4V37.2v565.4h565.4h565.4l-4.5,549.9l-6.6,547.7l-558.8,6.7l-561,4.4v554.3v554.3h-554.4h-554.3V2265.6z"/></g></g>
</svg>