<svg width="171.67mm" height="144.87mm" version="1.1" viewBox="0 0 171.67 144.87" xml:space="preserve" xmlns="http://www.w3.org/2000/svg"><g transform="translate(-19.167 -41.005)"><path d="m77.591 41.139c-16.278 2.2159-21.504 22.381-16.387 35.871 3.1962 8.4262 10.929 15.171 20.356 13.946 17.176-2.232 21.114-25.295 14.617-38.288-3.4107-6.8213-10.534-12.625-18.586-11.529m51.594 0c-16.315 2.221-21.299 22.094-16.486 35.606 3.0557 8.5778 10.961 15.445 20.454 14.211 17.011-2.2106 21.064-25.063 14.748-38.024-3.3724-6.9202-10.577-12.902-18.717-11.794m-91.281 33.337c-15.993 2.1762-21.827 21.092-17.197 34.813 3.0808 9.1297 11.04 16.449 21.166 15.002 16.848-2.4072 20.486-25.237 14.345-38.021-3.1803-6.6201-10.488-12.858-18.313-11.794m131.76 0c-15.961 2.1717-21.834 21.12-17.197 34.813 3.0832 9.104 11.062 16.445 21.166 15.002 16.788-2.3987 20.64-25.265 14.352-38.021-3.2597-6.613-10.426-12.868-18.321-11.794m-68.792 16.933c-2.408 0.32782-4.916 0.81863-7.1438 1.8222-12.797 5.7642-15.983 19.163-24.421 29.022-6.9268 8.0931-17.456 11.293-25.052 18.545-10.683 10.197-10.51 28.705 0.52528 38.559 7.3393 6.5537 15.657 6.7495 24.871 5.6433 12.441-1.4936 24.642-6.1415 37.306-5.5869 9.3549 0.40984 18.627 2.7628 27.781 4.5934 5.4113 1.0821 11.676 2.4236 17.198 1.633 17.792-2.5477 26.141-21.815 19.198-37.458-4.8956-11.029-17.51-14.456-26.078-21.731-11.194-9.5049-14.046-26.209-28.046-32.969-2.2386-1.0808-4.7035-1.5899-7.1438-1.9854-2.7974-0.45376-6.1854-0.46963-8.9958-0.0871m11.906 43.279h11.377c1.6743 0 3.7806-0.33152 5.2877 0.55298 2.8596 1.678 2.9998 10.967-7e-3 12.592-1.361 0.73581-3.5158 0.34872-5.0165 0.34872h-11.642v11.112c0 1.6947 0.29342 3.7539-0.60298 5.2811-1.7468 2.9766-11.144 2.9102-12.928 7e-3 -0.84825-1.3806-0.4916-3.4724-0.4916-5.0231v-11.377h-11.906c-1.5137 0-3.6915 0.39423-5.022-0.4609-2.6464-1.7007-2.6614-11.178 0.26352-12.617 1.5293-0.75221 3.6343-0.41619 5.2877-0.41619h11.377v-11.377c0-1.5687-0.34845-3.6269 0.53155-5.0154 1.7388-2.7435 11.331-2.5831 12.925 0.25691 0.85884 1.5301 0.56621 3.6044 0.56621 5.2877z" fill="#ff6363"/></g></svg>
