<?xml version="1.0" encoding="UTF-8"?>
<!-- Created with Inkscape (http://www.inkscape.org/) -->
<svg width="401.99mm" height="532.84mm" version="1.1" viewBox="0 0 401.99 532.84" xml:space="preserve" xmlns="http://www.w3.org/2000/svg"><g transform="translate(120.42 67.042)"><circle cx="81.148" cy="134.07" r="138.73" fill="#fff" stroke-width="9.525"/><g transform="translate(537.04 203.18)" fill="#3bb8f8"><g fill="#3bb8f8"><path d="m-456.47-270.22a200.99 200.99 0 0 0-200.99 200.99 200.99 200.99 0 0 0 35.015 113.35h-0.0419l1.4562 1.9167a200.99 200.99 0 0 0 9.2945 12.232l155.27 204.35 155.27-204.35a200.99 200.99 0 0 0 9.2945-12.232l1.4562-1.9167h-0.0419a200.99 200.99 0 0 0 35.016-113.35 200.99 200.99 0 0 0-200.99-200.99zm0 63.22a137.77 137.77 0 0 1 137.77 137.77 137.77 137.77 0 0 1-137.77 137.77 137.77 137.77 0 0 1-137.77-137.77 137.77 137.77 0 0 1 137.77-137.77z" fill="#3bb8f8" stroke-width="1.6095"/></g></g><path d="m47.414 61.837v21.687l-13.616 0.1416-4.0178 56.489c-2.2097 31.069-4.0272 56.518-4.0396 56.555-0.0123 0.0363-3.8327 0.0656-8.4894 0.0656h-8.4667v9.5255h144.73v-9.525h-16.909l-0.13953-0.8599c-0.0768-0.47295-2.2322-25.684-4.7894-56.026-2.5572-30.341-4.7048-55.434-4.7723-55.761l-0.12247-0.59531h-11.896v-21.696h-33.734zm9.525 9.2604h48.419v48.683h-48.419v-24.341zm19.579 10.054v9.525h-9.7896v9.525h9.7896v9.525h9.2604v-9.525h9.7896v-9.525h-9.7896v-9.525h-4.6302zm-30.68 11.906h1.5756v35.983h67.469v-35.983h1.5828c1.4288 0 1.594 0.0578 1.7033 0.59531 0.10546 0.51906 8.9066 102.4 8.8909 102.92-3e-3 0.10914-20.664 0.19843-45.911 0.19843-34.847 0-45.905-0.0743-45.905-0.30902 0-0.69968 8.7505-101.76 8.8796-102.55 0.14002-0.85789 0.14333-0.85938 1.7156-0.85938z" fill="#3bb8f8" stroke-width="9.525"/></g></svg>
