<svg id="Group_10197" data-name="Group 10197" xmlns="http://www.w3.org/2000/svg" width="25.651" height="22.352" viewBox="0 0 25.651 22.352">
  <path id="Path_270" data-name="Path 270" d="M.469.47a1.6,1.6,0,0,1,2.26,0l8.447,8.449L19.624.468a1.6,1.6,0,1,1,2.26,2.26l-9.577,9.577a1.6,1.6,0,0,1-2.26,0L.469,2.728a1.6,1.6,0,0,1,0-2.26Z" transform="translate(12.775 0) rotate(90)" fill="#fff" fill-rule="evenodd"/>
  <path id="Path_271" data-name="Path 271" d="M1.6,0c.882,0,1.6.5,1.6,1.123V21.333c0,.62-.715,1.123-1.6,1.123S0,21.954,0,21.333V1.123C0,.5.715,0,1.6,0Z" transform="translate(25.651 9.58) rotate(90)" fill="#fff" fill-rule="evenodd"/>
</svg>
