<svg viewBox="0 0 163 159" xmlns="http://www.w3.org/2000/svg">
 <path d="m80.409 0c-8.7947 0-15.875 7.0808-15.875 15.876v47.919c-0.41681-0.0316-0.83664-0.0527-1.2619-0.0527h-47.168c-8.9214 0-16.104 7.0803-16.104 15.875s7.1826 15.875 16.104 15.875h47.168c0.4253 0 0.84513-0.0211 1.2619-0.0527v47.436c0 8.7947 7.0803 15.875 15.875 15.875s15.875-7.0803 15.875-15.875v-45.572c-8.7947 0-15.875-8.2911-15.875-18.591s7.0803-18.591 15.875-18.591v-44.245c0-8.7947-7.0803-15.876-15.875-15.876z" fill="#fff"/>
 <path d="m99.809 62.925c-9.0074 0-16.259 7.042-16.259 15.789 0 7.9426 5.9788 14.478 13.822 15.614v0.17583c0 0.0946 0.0777 0.17075 0.17415 0.17075h25.034c0.0965 0 0.17415-0.0762 0.17415-0.17075h23.912c9.0074 0 16.259-7.0425 16.259-15.79 0-8.7474-7.2521-15.789-16.259-15.789zm22.945 5.194h24.049c6.0441 0 10.909 4.7257 10.909 10.595v5.1e-4c0 5.8696-4.8653 10.595-10.909 10.595h-24.049z" fill="#ff6464"/>
</svg>
