<svg xmlns="http://www.w3.org/2000/svg" width="12.453" height="12.453" viewBox="0 0 12.453 12.453">
  <g id="search" opacity="0.7">
    <path id="Path_268" data-name="Path 268" d="M23.065,23.063a.778.778,0,0,1,1.1,0l3,3a.778.778,0,0,1-1.1,1.1l-3-3a.778.778,0,0,1,0-1.1Z" transform="translate(-14.938 -14.936)" fill="#111a42" fill-rule="evenodd"/>
    <path id="Path_269" data-name="Path 269" d="M5.059,9.34A4.281,4.281,0,1,0,.778,5.059,4.281,4.281,0,0,0,5.059,9.34Zm5.059-4.281A5.059,5.059,0,1,1,5.059,0a5.059,5.059,0,0,1,5.059,5.059Z" fill="#111a42" fill-rule="evenodd"/>
  </g>
</svg>
