<svg version="1.1" viewBox="0 0 402 533" xmlns="http://www.w3.org/2000/svg">
 <g transform="translate(120.42 67.042)">
  <circle cx="81.148" cy="134.07" r="138.73" fill="#fff" stroke-width="9.525"/>
  <g transform="translate(537.04 203.18)" fill="#ff6363">
   <path d="m-456.47-270.22a200.99 200.99 0 0 0-200.99 200.99 200.99 200.99 0 0 0 35.015 113.35h-0.0419l1.4562 1.9167a200.99 200.99 0 0 0 9.2945 12.232l155.27 204.35 155.27-204.35a200.99 200.99 0 0 0 9.2945-12.232l1.4562-1.9167h-0.0419a200.99 200.99 0 0 0 35.016-113.35 200.99 200.99 0 0 0-200.99-200.99zm0 63.22a137.77 137.77 0 0 1 137.77 137.77 137.77 137.77 0 0 1-137.77 137.77 137.77 137.77 0 0 1-137.77-137.77 137.77 137.77 0 0 1 137.77-137.77z"/>
  </g>
 </g>
 <path d="m178.82 141.1c-13.512 1.8393-17.85 18.578-13.602 29.775 2.653 6.9943 9.0714 12.593 16.897 11.576 14.257-1.8527 17.526-20.997 12.133-31.782-2.8311-5.6621-8.7442-10.48-15.428-9.5699m42.826 0c-13.543 1.8436-17.68 18.339-13.684 29.555 2.5364 7.1201 9.098 12.82 16.978 11.796 14.12-1.8349 17.484-20.804 12.242-31.562-2.7993-5.7442-8.7796-10.709-15.536-9.7896m-75.769 27.672c-13.276 1.8064-18.118 17.507-14.274 28.897 2.5572 7.5782 9.1639 13.653 17.569 12.452 13.985-1.9981 17.005-20.948 11.907-31.56-2.6398-5.4951-8.7058-10.673-15.201-9.7896m109.37 0c-13.248 1.8026-18.124 17.531-14.274 28.897 2.5592 7.5569 9.1819 13.651 17.569 12.452 13.935-1.9911 17.132-20.971 11.913-31.56-2.7057-5.4892-8.6539-10.681-15.207-9.7896m-57.101 14.056c-1.9988 0.27212-4.0806 0.67952-5.9298 1.5125-10.623 4.7847-13.267 15.907-20.271 24.09-5.7497 6.7178-14.489 9.3743-20.795 15.393-8.8673 8.464-8.7242 23.827 0.43602 32.007 6.0921 5.44 12.996 5.6025 20.644 4.6843 10.327-1.2398 20.454-5.0978 30.967-4.6375 7.7651 0.34019 15.461 2.2933 23.06 3.8128 4.4917 0.89825 9.6916 2.0117 14.275 1.3555 14.768-2.1147 21.699-18.108 15.936-31.092-4.0636-9.1551-14.534-12-21.646-18.038-9.292-7.8897-11.659-21.755-23.28-27.367-1.8582-0.89716-3.9042-1.3197-5.9298-1.648-2.322-0.37665-5.1343-0.38982-7.4671-0.0723m9.8829 35.924h9.4437c1.3898 0 3.1382-0.27518 4.3891 0.45901 2.3737 1.3928 2.4901 9.1031-6e-3 10.452-1.1297 0.61076-2.9183 0.28946-4.164 0.28946h-9.6633v9.2241c0 1.4067 0.24357 3.116-0.50051 4.3836-1.4499 2.4707-9.2504 2.4156-10.731 6e-3 -0.7041-1.146-0.40806-2.8823-0.40806-4.1695v-9.444h-9.8826c-1.2564 0-3.0641 0.32724-4.1686-0.38258-2.1966-1.4117-2.2092-9.2785 0.21874-10.473 1.2694-0.62438 3.0167-0.34547 4.3891-0.34547h9.4437v-9.4437c0-1.3021-0.28923-3.0106 0.44122-4.1631 1.4434-2.2773 9.4057-2.1442 10.729 0.21324 0.71289 1.2701 0.46999 2.9919 0.46999 4.3891z" fill="#ff6363"/>
</svg>
