<?xml version="1.0" encoding="utf-8"?>
<!-- Svg Vector Icons : http://www.onlinewebfonts.com/icon -->
<!DOCTYPE svg PUBLIC "-//W3C//DTD SVG 1.1//EN" "http://www.w3.org/Graphics/SVG/1.1/DTD/svg11.dtd">
<svg version="1.1" xmlns="http://www.w3.org/2000/svg" xmlns:xlink="http://www.w3.org/1999/xlink" x="0px" y="0px" viewBox="0 0 1000 1000" enable-background="new 0 0 1000 1000" xml:space="preserve">
<metadata> Svg Vector Icons : http://www.onlinewebfonts.com/icon </metadata>
<g><g transform="translate(0.000000,511.000000) scale(0.100000,-0.100000)"><path d="M4624.6,4997.8c-783.1-81.8-1539.6-415.1-2122.4-932.4c-623.6-554.1-1053-1314.7-1210.4-2146.9c-65.4-351.7-65.4-952.8,2.1-1316.8c57.3-314.9,206.5-774.9,347.6-1071.4c314.9-668.6,742.2-1247.2,1801.3-2435.2c730-817.9,1106.2-1282,1410.8-1733.9c128.8-190.1,157.4-196.3,253.5-45c229,363.9,707.5,954.9,1466,1809.5c703.4,793.3,954.9,1098,1241.1,1494.7c707.5,989.6,1030.5,2040.6,922.2,3020c-184,1686.8-1441.5,3032.2-3103.8,3318.5C5358.7,5005.9,4878.2,5024.3,4624.6,4997.8z M5548.8,3944.8c1298.4-282.2,2208.2-1400.6,2208.2-2719.4c0-1298.4-916-2418.8-2208.2-2701c-247.4-55.2-856.7-55.2-1104.1,0C3348.8-1236.4,2526.8-414.5,2285.5,685.6c-49.1,224.9-59.3,719.7-20.4,958.9c198.3,1208.4,1104.1,2122.3,2302.3,2320.7C4790.3,4002,5334.1,3991.8,5548.8,3944.8z"/><path d="M3657.5,2928.6c-6.1-14.3-8.2-785.1-6.1-1713.4l6.1-1686.9h439.6h439.6l6.1,629.8l4.1,627.7h449.8h449.8l4.1-627.7l6.1-629.8l417.1-6.1c290.4-4.1,425.3,2,443.7,18.4c38.9,32.7,42.9,3349.1,4.1,3388c-26.6,26.6-779,36.8-842.4,12.3c-28.6-10.2-32.7-85.9-32.7-633.8v-621.6h-449.8h-449.8l-4.1,629.8l-6.1,627.7l-435.5,6.1C3765.9,2953.1,3663.6,2949,3657.5,2928.6z"/></g></g>
</svg>